<svg xmlns="http://www.w3.org/2000/svg" viewBox="0 0 3840 2160">
  <path fill="#141a1b" d="M0 0h3840v2160H0z"/>
  <path fill="#eee" d="m2388 1440 137 50 485-184v-67l-312-91-485 156v71l137 51 39-15Zm0 0"/>
  <path fill="#eee" d="M2562 1432v72l136 51 484-180v-72Zm-190-120c-6-130 130-200 231-254 88-46 197-107 175-221-5-23-42-13-38 11 11 52-20 91-61 121-47 35-103 60-155 89-96 53-196 137-191 254 2 24 40 24 39 0Zm0 0"/>
  <path fill="#eee" d="M2541 1098c134 27 275-11 374-103 18-16-10-43-28-26a386 386 0 0 1-335 93c-25-4-35 31-11 36Zm0 0"/>
  <path fill="#16a085" d="m2698 1125-484 179 137 50 348-128 175 63 136-50Zm0 0"/>
  <path fill="#16a085" d="m2697 1253-309 115 137 50 309-115Zm349 0-483 179 136 50 483-179Zm40-437c14 0 29 3 36 15 5 10 1 22-6 31-8 8-18 13-29 17a538 538 0 0 1-167 38c-16 1-33 1-48-4-16-5-29-16-34-31-9-34 69-46 90-49 21-4 42-7 63-7 31-3 62-12 95-10Zm-545 10c35 9 94-31 121-43 34-17 70-29 105-44 13-6 56-19 56-38 1-23-45-24-60-23-30 3-59 12-89 21-30 8-59 20-87 34-21 11-49 30-62 50-7 12-7 30 5 38a28 28 0 0 0 11 5Zm0 0"/>
  <path fill="#16a085" d="m2756 763 18-9c50-23 107-42 164-46 49-3 103-12 152 1 25 6 53 30 40 53-10 17-50 40-68 52-65 45-155 64-237 68-60 3-159-30-104-93 9-10 21-18 35-26Zm322 278c-21-50-147 5-176 23-10 7-22 17-19 29 2 13 17 19 31 20 33 4 189-12 164-72Zm-396-162c-6 33-52 69-83 80-30 10-80-11-61-47 16-30 96-85 132-63 9 6 13 19 12 30Zm88 165c50 6 100 0 146-17 11-4 21-9 26-19a20 20 0 0 0-6-22 21 21 0 0 0-22-4c-14-15-38-13-58-9a350 350 0 0 0-92 32c-10 5-22 14-18 25 2 9 14 13 24 14Zm0 0"/>
  <path fill="#16a085" d="M2828 1005c65 14 136-4 192-39 7-4 15-12 14-20-2-11-15-14-27-14-63 1-127 17-182 48-7 3-14 9-12 16 2 6 9 8 15 9Zm-327-84c6-7 11-15 9-24-12-46-77 14-92 28-20 17-19 33 13 33 27-1 55-18 70-37Zm0 0"/>
</svg>
