<svg xmlns="http://www.w3.org/2000/svg" viewBox="0 0 48 48">
  <path fill="#eee" d="m8.5 40.2 6.9 2.5 24.3-9.2v-3.4L24 25.6-.3 33.4V37l6.9 2.5 2-.7zm0 0"/>
  <path fill="#eee" d="M17.2 39.8v3.6L24 46l24.3-9v-3.6zm-9.5-6c-.3-6.5 6.5-10 11.6-12.7C23.7 18.8 29 15.7 28 10c-.2-1.2-2-.7-1.9.5.6 2.7-1 4.6-3 6.1-2.4 1.8-5.2 3-7.8 4.5-4.8 2.6-9.8 6.8-9.6 12.7.1 1.2 2 1.2 2 0zm0 0"/>
  <path fill="#eee" d="M16.2 23c6.7 1.4 13.7-.5 18.7-5 1-.9-.5-2.2-1.4-1.4a19.4 19.4 0 0 1-16.8 4.7c-1.2-.2-1.7 1.5-.5 1.8zm0 0"/>
  <path fill="#16a085" d="m24 24.4-24.2 9L6.6 36l17.5-6.4 8.7 3.2 6.9-2.6zm0 0"/>
  <path fill="#16a085" d="M24 30.8 8.5 36.6l6.9 2.5 15.4-5.7zm17.5 0-24.2 9 6.8 2.5 24.2-9zm2-21.9c.7 0 1.4.2 1.8.8.2.5 0 1.1-.3 1.5-.4.4-1 .7-1.5.9a27 27 0 0 1-8.3 2c-.8 0-1.7 0-2.5-.3-.8-.2-1.4-.8-1.7-1.5-.4-1.8 3.5-2.4 4.6-2.5 1-.2 2-.4 3.1-.4 1.6-.1 3.1-.6 4.8-.5zm-27.3.5c1.7.5 4.7-1.5 6-2.1 1.7-.9 3.5-1.5 5.3-2.2.6-.3 2.8-1 2.8-2s-2.3-1.1-3-1c-1.5 0-3 .5-4.5 1-1.5.4-3 1-4.3 1.7a9 9 0 0 0-3.1 2.5c-.4.6-.4 1.5.2 1.9a1.4 1.4 0 0 0 .6.2zm0 0"/>
  <path fill="#16a085" d="m27 6.3.8-.5c2.5-1.1 5.4-2 8.3-2.3 2.4-.1 5.1-.6 7.6 0 1.2.4 2.6 1.6 2 2.7-.5.9-2.5 2-3.4 2.6a23.4 23.4 0 0 1-12 3.5c-3 .1-7.9-1.6-5.1-4.7a7 7 0 0 1 1.7-1.3zm16 14c-1-2.6-7.3.2-8.7 1-.5.4-1.2 1-1 1.5.1.7.9 1 1.6 1 1.6.2 9.4-.6 8.2-3.6zM23.3 12c-.3 1.7-2.6 3.5-4.1 4-1.5.5-4-.5-3.1-2.3.8-1.5 4.8-4.3 6.6-3.2.5.3.7 1 .6 1.5zm4.4 8.3c2.5.3 5 0 7.4-.9.5-.2 1-.4 1.3-1a1 1 0 0 0-.3-1 1 1 0 0 0-1.1-.2c-.7-.8-2-.7-3-.5a17.5 17.5 0 0 0-4.6 1.6c-.5.3-1 .7-.9 1.3.1.4.7.6 1.2.7zm0 0"/>
  <path fill="#16a085" d="M30.5 18.4c3.3.7 6.9-.2 9.7-2 .3-.1.7-.5.7-1-.1-.5-.8-.6-1.4-.6-3.1 0-6.4.8-9.1 2.4-.4.1-.7.4-.6.8 0 .3.4.4.7.4zm-16.4-4.2c.4-.3.6-.7.5-1.2-.6-2.3-3.9.7-4.6 1.4-1 .9-1 1.7.6 1.7a5 5 0 0 0 3.5-1.9zm0 0"/>
</svg>
